<?xml version="1.0" standalone="no"?>
<!DOCTYPE svg PUBLIC "-//W3C//DTD SVG 20010904//EN"
 "http://www.w3.org/TR/2001/REC-SVG-20010904/DTD/svg10.dtd">
<svg version="1.0" xmlns="http://www.w3.org/2000/svg"
 width="512.000000pt" height="512.000000pt" viewBox="0 0 512.000000 512.000000"
 preserveAspectRatio="xMidYMid meet">
<metadata>
Created by potrace 1.11, written by Peter Selinger 2001-2013
</metadata>
<g transform="translate(0.000000,512.000000) scale(0.100000,-0.100000)"
fill="#000000" stroke="none">
<path d="M675 5114 c-103 -21 -136 -29 -195 -54 -187 -77 -342 -231 -417 -412
-62 -152 -57 16 -61 -2043 -2 -1277 1 -1902 8 -1948 25 -162 100 -309 219
-428 117 -117 263 -193 422 -218 89 -15 3729 -15 3818 0 159 25 305 101 422
218 117 117 193 263 218 422 15 89 15 3729 0 3818 -25 159 -101 305 -218 422
-117 117 -263 193 -422 218 -61 10 -3745 14 -3794 5z m2070 -429 l160 -152
140 -36 c273 -69 519 -186 743 -354 100 -75 268 -237 345 -333 307 -380 466
-866 442 -1350 -17 -353 -80 -623 -206 -889 -165 -347 -418 -609 -759 -785
-50 -26 -90 -48 -90 -49 0 -1 43 -132 95 -292 51 -159 93 -290 92 -291 -1 0
-211 85 -466 189 l-465 189 -200 3 c-222 3 -355 20 -533 65 -737 191 -1316
803 -1468 1554 -87 432 -35 825 162 1221 215 432 596 810 1041 1036 l112 57
266 261 266 262 81 -77 c45 -42 154 -145 242 -229z"/>
<path d="M1894 4073 c-291 -323 -543 -604 -561 -624 l-32 -36 510 -368 c280
-202 508 -371 507 -375 -2 -4 -222 -243 -490 -531 -269 -287 -488 -525 -488
-528 0 -7 2021 -1123 2025 -1119 2 2 -156 250 -351 553 -280 433 -352 551
-342 561 7 6 313 269 680 583 l668 573 -128 151 c-126 150 -1463 1739 -1467
1745 -1 1 -240 -262 -531 -585z"/>
</g>
</svg>
